<svg width="33" height="21" viewBox="0 0 33 21" fill="none" xmlns="http://www.w3.org/2000/svg">
<rect width="15.84" height="21" fill="#F6EDFE"/>
<rect x="15.84" width="1.32" height="21" fill="#F6EDFE"/>
<rect x="1.32001" y="1.23529" width="14.52" height="18.5294" fill="#6D8AB5"/>
<rect x="17.16" width="15.84" height="21" fill="#F6EDFE"/>
<rect x="17.16" y="1.23529" width="14.52" height="18.5294" fill="#6D8AB5"/>
<rect x="3.95999" y="2.47058" width="9.24" height="1.23529" fill="#F6EDFE"/>
<rect x="19.8" y="17.2941" width="9.24" height="1.23529" fill="#F6EDFE"/>
<rect width="11.88" height="1.23529" transform="matrix(1 0 0 -1 2.64001 6.17648)" fill="#F6EDFE"/>
<rect width="11.88" height="1.23529" transform="matrix(1 0 0 -1 18.48 6.17648)" fill="#F6EDFE"/>
<rect width="11.88" height="1.23529" transform="matrix(1 0 0 -1 18.48 8.64706)" fill="#F6EDFE"/>
<rect width="11.88" height="1.23529" transform="matrix(1 0 0 -1 18.48 11.1176)" fill="#F6EDFE"/>
<rect width="11.88" height="1.23529" transform="matrix(1 0 0 -1 18.48 13.5882)" fill="#F6EDFE"/>
<rect width="11.88" height="1.23529" transform="matrix(1 0 0 -1 18.48 16.0588)" fill="#F6EDFE"/>
<rect width="11.88" height="1.23529" transform="matrix(1 0 0 -1 2.64001 8.64706)" fill="#F6EDFE"/>
<rect width="11.88" height="1.23529" transform="matrix(1 0 0 -1 2.64001 11.1176)" fill="#F6EDFE"/>
<rect width="11.88" height="1.23529" transform="matrix(1 0 0 -1 2.64001 13.5882)" fill="#F6EDFE"/>
<rect width="11.88" height="1.23529" transform="matrix(1 0 0 -1 2.64001 16.0588)" fill="#F6EDFE"/>
<rect width="5.28" height="1.23529" transform="matrix(1 0 0 -1 9.23999 18.5294)" fill="#F6EDFE"/>
<rect x="19.0385" y="2.47058" width="5.07692" height="1.23529" fill="#F6EDFE"/>
</svg>
