<svg width="45" height="45" viewBox="0 0 45 45" fill="none" xmlns="http://www.w3.org/2000/svg">
<path fill-rule="evenodd" clip-rule="evenodd" d="M5 0C2.23858 0 0 2.23858 0 5V40C0 42.7614 2.23858 45 5 45H40C42.7614 45 45 42.7614 45 40V5C45 2.23858 42.7614 0 40 0H5ZM7.04545 2.04545C4.28403 2.04545 2.04545 4.28403 2.04545 7.04546V37.9545C2.04545 40.716 4.28403 42.9545 7.04546 42.9545H37.9545C40.716 42.9545 42.9545 40.716 42.9545 37.9545V7.04545C42.9545 4.28403 40.716 2.04545 37.9545 2.04545H7.04545Z" fill="#F6EDFE"/>
<path fill-rule="evenodd" clip-rule="evenodd" d="M22.5 34.7728C29.2781 34.7728 34.7728 29.2781 34.7728 22.5C34.7728 15.722 29.2781 10.2273 22.5 10.2273C15.722 10.2273 10.2273 15.722 10.2273 22.5C10.2273 29.2781 15.722 34.7728 22.5 34.7728ZM22.5 30.6818C27.0187 30.6818 30.6818 27.0187 30.6818 22.5C30.6818 17.9813 27.0187 14.3182 22.5 14.3182C17.9813 14.3182 14.3182 17.9813 14.3182 22.5C14.3182 27.0187 17.9813 30.6818 22.5 30.6818Z" fill="#F6EDFE"/>
<ellipse cx="35.7955" cy="9.20453" rx="3.06818" ry="3.06818" fill="#F6EDFE"/>
</svg>
