<svg width="112" height="33" viewBox="0 0 112 33" fill="none" xmlns="http://www.w3.org/2000/svg">
<path d="M18.1562 27V9.54545H28.6051V11.3267H20.1591V17.3693H28.0597V19.142H20.1591V25.2188H28.75V27H18.1562ZM44.4281 15C44.2463 14.4261 44.0019 13.9062 43.6951 13.4403C43.394 12.9687 43.0303 12.5653 42.6042 12.2301C42.1781 11.8892 41.6951 11.6307 41.1553 11.4545C40.6156 11.2727 40.019 11.1818 39.3656 11.1818C38.3088 11.1818 37.3514 11.4545 36.4934 12C35.6355 12.5455 34.9536 13.3466 34.448 14.4034C33.948 15.4602 33.698 16.75 33.698 18.2727C33.698 19.7955 33.9508 21.0852 34.4565 22.142C34.9678 23.1989 35.661 24 36.536 24.5455C37.411 25.0909 38.3997 25.3636 39.5019 25.3636C40.5133 25.3636 41.4082 25.1449 42.1866 24.7074C42.965 24.2699 43.573 23.6477 44.0105 22.8409C44.448 22.0284 44.6639 21.071 44.6582 19.9688L45.2803 20.1136H39.9536V18.3324H46.5928V20.1136C46.5928 21.5625 46.2889 22.821 45.6809 23.8892C45.073 24.9517 44.2349 25.7756 43.1667 26.3608C42.1042 26.946 40.8826 27.2386 39.5019 27.2386C37.9565 27.2386 36.6014 26.875 35.4366 26.1477C34.2775 25.4148 33.3741 24.3778 32.7264 23.0369C32.0843 21.696 31.7633 20.108 31.7633 18.2727C31.7633 16.8977 31.948 15.6591 32.3173 14.5568C32.6866 13.4489 33.2093 12.5057 33.8855 11.7273C34.5673 10.9432 35.3713 10.3438 36.2974 9.92898C37.2292 9.5142 38.2519 9.30682 39.3656 9.30682C40.2917 9.30682 41.1525 9.44886 41.948 9.73295C42.7491 10.0114 43.4593 10.4062 44.0786 10.9176C44.7036 11.4233 45.2235 12.0227 45.6383 12.7159C46.0531 13.4091 46.3372 14.1705 46.4906 15H44.4281ZM58.9987 9.54545V27H56.9959V9.54545H58.9987ZM84.6553 18.2727C84.6553 20.108 84.3257 21.696 83.6666 23.0369C83.0075 24.3778 82.1013 25.4148 80.9479 26.1477C79.7945 26.875 78.4763 27.2386 76.9933 27.2386C75.5047 27.2386 74.1837 26.875 73.0303 26.1477C71.8769 25.4148 70.9706 24.3778 70.3115 23.0369C69.6524 21.696 69.3229 20.108 69.3229 18.2727C69.3229 16.4375 69.6524 14.8494 70.3115 13.5085C70.9706 12.1676 71.8769 11.1335 73.0303 10.4062C74.1837 9.6733 75.5047 9.30682 76.9933 9.30682C78.4763 9.30682 79.7945 9.6733 80.9479 10.4062C82.1013 11.1335 83.0075 12.1676 83.6666 13.5085C84.3257 14.8494 84.6553 16.4375 84.6553 18.2727ZM82.7206 18.2727C82.7206 16.75 82.4678 15.4602 81.9621 14.4034C81.4564 13.3466 80.7689 12.5455 79.8996 12C79.036 11.4545 78.0672 11.1818 76.9933 11.1818C75.9138 11.1818 74.9394 11.4545 74.07 12C73.2064 12.5455 72.5218 13.3466 72.0161 14.4034C71.5104 15.4602 71.2575 16.75 71.2575 18.2727C71.2575 19.7955 71.5104 21.0852 72.0161 22.142C72.5218 23.1989 73.2064 24 74.07 24.5455C74.9394 25.0909 75.9138 25.3636 76.9933 25.3636C78.0672 25.3636 79.036 25.0909 79.8996 24.5455C80.7689 24 81.4564 23.1989 81.9621 22.142C82.4678 21.0852 82.7206 19.7955 82.7206 18.2727ZM102.055 9.54545V27H100.12L90.4299 13.0994H90.268V27H88.2652V9.54545H90.1998L99.9243 23.4801H100.086V9.54545H102.055Z" fill="#010101"/>
<path d="M7 5H9V31V31C7.89543 31 7 30.1046 7 29V5Z" fill="#2A599F"/>
<path d="M11 33C9.89543 33 9 32.1046 9 31V31L111 31V31C111 32.1046 110.105 33 109 33L11 33Z" fill="#2A599F"/>
<path fill-rule="evenodd" clip-rule="evenodd" d="M9 28V31H12C10.3431 31 9 29.6569 9 28Z" fill="#2A599F"/>
<path fill-rule="evenodd" clip-rule="evenodd" d="M10 27V30H13C11.3431 30 10 28.6569 10 27Z" fill="black"/>
<path fill-rule="evenodd" clip-rule="evenodd" d="M9 25.5351C7.8044 26.2267 7 27.5194 7 29C7 31.2091 8.79086 33 11 33C12.4806 33 13.7733 32.1956 14.4649 31H9V25.5351Z" fill="#2A599F"/>
<path d="M64 6V6C65.1046 6 66 6.89543 66 8V23V23C64.8954 23 64 22.1046 64 21V6Z" fill="black"/>
<path d="M12 32C10.8954 32 10 31.1046 10 30V30L112 30V30C112 31.1046 111.105 32 110 32L12 32Z" fill="black"/>
<path fill-rule="evenodd" clip-rule="evenodd" d="M10 25C8.8044 25.6486 8 26.8607 8 28.2491C8 30.3207 9.79086 32 12 32C13.4806 32 14.7733 31.2457 15.4649 30.1246H10V25Z" fill="black"/>
<path d="M8 1L9 5L8 9L7 5L8 1Z" fill="#2A599F"/>
<path d="M58 3L59 5.5L58 8L57 5.5L58 3Z" fill="black"/>
<path d="M50 8C50 6.89543 50.8954 6 52 6V6V21C52 22.1046 51.1046 23 50 23V23V8Z" fill="black"/>
<path fill-rule="evenodd" clip-rule="evenodd" d="M65.748 24C65.9125 23.6804 66 23.3453 66 23C66 20.7909 62.4183 19 58 19C53.5817 19 50 20.7909 50 23C50 23.3453 50.0875 23.6804 50.252 24C51.1401 22.2748 54.2723 21 58 21C61.7277 21 64.8599 22.2748 65.748 24Z" fill="black"/>
<path fill-rule="evenodd" clip-rule="evenodd" d="M61.8396 27.2778C61.944 27.1192 62 26.9514 62 26.7778C62 25.7959 60.2091 25 58 25C55.7909 25 54 25.7959 54 26.7778C54 26.9514 54.056 27.1192 54.1604 27.2778C54.6464 26.5394 56.1815 26 58 26C59.8185 26 61.3536 26.5394 61.8396 27.2778Z" fill="black"/>
<path d="M8 6C8 4.89543 8.89543 4 10 4V4V30V30C8.89543 30 8 29.1046 8 28V6Z" fill="black"/>
<rect x="57" y="27" width="2" height="2" fill="black"/>
</svg>
