<svg width="112" height="33" viewBox="0 0 112 33" fill="none" xmlns="http://www.w3.org/2000/svg">
<g filter="url(#filter0_d_4_2)">
<path d="M27.3182 23V5.54545H37.4432V6.97727H28.9119V13.5483H36.9062V14.9801H28.9119V21.5682H37.6136V23H27.3182ZM53.6449 11C53.4858 10.4205 53.2528 9.87784 52.946 9.37216C52.6392 8.8608 52.2585 8.41477 51.804 8.03409C51.3551 7.64773 50.8352 7.34659 50.2443 7.13068C49.6591 6.91477 49.0057 6.80682 48.2841 6.80682C47.1477 6.80682 46.1307 7.10227 45.233 7.69318C44.3352 8.28409 43.625 9.13636 43.1023 10.25C42.5852 11.3636 42.3267 12.7045 42.3267 14.2727C42.3267 15.8352 42.5881 17.1733 43.1108 18.2869C43.6335 19.4006 44.3494 20.2557 45.2585 20.8523C46.1733 21.4432 47.2188 21.7386 48.3949 21.7386C49.4688 21.7386 50.4176 21.5 51.2415 21.0227C52.0653 20.5455 52.7074 19.8636 53.1676 18.9773C53.6335 18.0909 53.8608 17.0369 53.8494 15.8153L54.3608 15.9773H48.7699V14.5455H55.4006V15.9773C55.4006 17.4659 55.0994 18.7528 54.4972 19.8381C53.8949 20.9233 53.0682 21.7614 52.017 22.3523C50.9659 22.9432 49.7585 23.2386 48.3949 23.2386C46.8722 23.2386 45.5398 22.8722 44.3977 22.1392C43.2557 21.4006 42.3665 20.3608 41.7301 19.0199C41.0994 17.6733 40.7841 16.0909 40.7841 14.2727C40.7841 12.9034 40.9659 11.6676 41.3295 10.5653C41.6932 9.46307 42.2074 8.51989 42.8722 7.73579C43.5426 6.9517 44.3352 6.35227 45.25 5.9375C46.1648 5.51705 47.1761 5.30682 48.2841 5.30682C49.2386 5.30682 50.1108 5.45739 50.9006 5.75852C51.696 6.05966 52.3949 6.47443 52.9972 7.00284C53.6051 7.52557 54.1023 8.13068 54.4886 8.81818C54.8807 9.5 55.1449 10.2273 55.2812 11H53.6449ZM60.951 5.54545V23H59.3572V5.54545H60.951ZM79.9013 14.2727C79.9013 16.0909 79.5774 17.6733 78.9297 19.0199C78.282 20.3608 77.3899 21.4006 76.2536 22.1392C75.1229 22.8722 73.8217 23.2386 72.3501 23.2386C70.8786 23.2386 69.5746 22.8722 68.4382 22.1392C67.3075 21.4006 66.4183 20.3608 65.7706 19.0199C65.1286 17.6733 64.8075 16.0909 64.8075 14.2727C64.8075 12.4545 65.1286 10.875 65.7706 9.53409C66.4183 8.1875 67.3104 7.14773 68.4467 6.41477C69.5831 5.67614 70.8842 5.30682 72.3501 5.30682C73.8217 5.30682 75.1229 5.67614 76.2536 6.41477C77.3899 7.14773 78.282 8.1875 78.9297 9.53409C79.5774 10.875 79.9013 12.4545 79.9013 14.2727ZM78.3501 14.2727C78.3501 12.7102 78.0888 11.3722 77.5661 10.2585C77.0433 9.1392 76.3303 8.28409 75.4268 7.69318C74.5234 7.10227 73.4979 6.80682 72.3501 6.80682C71.2081 6.80682 70.1854 7.10227 69.282 7.69318C68.3786 8.28409 67.6626 9.13636 67.1342 10.25C66.6115 11.3636 66.3501 12.7045 66.3501 14.2727C66.3501 15.8352 66.6115 17.1733 67.1342 18.2869C67.657 19.4006 68.37 20.2557 69.2734 20.8523C70.1768 21.4432 71.2024 21.7386 72.3501 21.7386C73.4979 21.7386 74.5234 21.4432 75.4268 20.8523C76.3359 20.2614 77.0518 19.4091 77.5746 18.2955C78.0973 17.1761 78.3558 15.8352 78.3501 14.2727ZM97.3494 5.54545V23H95.7983L85.4858 8.38352H85.3494V23H83.7557V5.54545H85.2983L95.6449 20.179H95.7812V5.54545H97.3494Z" fill="#010101"/>
</g>
<path d="M7 5H9V31C7.89543 31 7 30.1046 7 29V5Z" fill="#00C2FF"/>
<path d="M11 33C9.89543 33 9 32.1046 9 31L111 31C111 32.1046 110.105 33 109 33L11 33Z" fill="#00C2FF"/>
<path fill-rule="evenodd" clip-rule="evenodd" d="M9 28V31H12C10.3431 31 9 29.6569 9 28Z" fill="#00C2FF"/>
<path fill-rule="evenodd" clip-rule="evenodd" d="M10 27V30H13C11.3431 30 10 28.6569 10 27Z" fill="black"/>
<path fill-rule="evenodd" clip-rule="evenodd" d="M9 25.5351C7.8044 26.2267 7 27.5194 7 29C7 31.2091 8.79086 33 11 33C12.4806 33 13.7733 32.1956 14.4649 31H9V25.5351Z" fill="#00C2FF"/>
<path d="M16 6C16.5523 6 17 6.44772 17 7V23C16.4477 23 16 22.5523 16 22V6Z" fill="black"/>
<path d="M15 7C15.5523 7 16 7.44772 16 8V24C15.4477 24 15 23.5523 15 23V7Z" fill="#00C2FF"/>
<path d="M0 8C0 7.44772 0.447715 7 1 7V23.5C1 23.7761 0.776142 24 0.5 24C0.223858 24 0 23.7761 0 23.5V8Z" fill="#00C2FF"/>
<path d="M12 32C10.8954 32 10 31.1046 10 30L112 30C112 31.1046 111.105 32 110 32L12 32Z" fill="black"/>
<path fill-rule="evenodd" clip-rule="evenodd" d="M10 25C8.8044 25.6485 8 26.8607 8 28.2491C8 30.3207 9.79086 32 12 32C13.4806 32 14.7733 31.2457 15.4649 30.1245H10V25Z" fill="black"/>
<path fill-rule="evenodd" clip-rule="evenodd" d="M15.748 25C15.9125 24.6804 16 24.3453 16 24C16 21.7909 12.4183 20 8 20C3.58172 20 0 21.7909 0 24C0 24.3453 0.0875061 24.6804 0.252035 25C1.14012 23.2748 4.27232 22 8 22C11.7277 22 14.8599 23.2748 15.748 25Z" fill="#00C2FF"/>
<path d="M8 1L9 5L8 9L7 5L8 1Z" fill="#00C2FF"/>
<path d="M9 0L10 4L9 8L8 4L9 0Z" fill="black"/>
<path d="M1 7C1 6.44772 1.44772 6 2 6V22.5C2 22.7761 1.77614 23 1.5 23C1.22386 23 1 22.7761 1 22.5V7Z" fill="black"/>
<path fill-rule="evenodd" clip-rule="evenodd" d="M16.748 24C16.9125 23.6804 17 23.3453 17 23C17 20.7909 13.4183 19 9 19C4.58172 19 1 20.7909 1 23C1 23.3453 1.08751 23.6804 1.25204 24C2.14012 22.2748 5.27232 21 9 21C12.7277 21 15.8599 22.2748 16.748 24Z" fill="black"/>
<path fill-rule="evenodd" clip-rule="evenodd" d="M11.8396 28.2778C11.944 28.1192 12 27.9514 12 27.7778C12 26.7959 10.2091 26 8 26C5.79086 26 4 26.7959 4 27.7778C4 27.9514 4.05599 28.1192 4.16038 28.2778C4.64637 27.5394 6.18147 27 8 27C9.81853 27 11.3536 27.5394 11.8396 28.2778Z" fill="#00C2FF"/>
<path fill-rule="evenodd" clip-rule="evenodd" d="M12.8396 27.2778C12.944 27.1192 13 26.9514 13 26.7778C13 25.7959 11.2091 25 9 25C6.79086 25 5 25.7959 5 26.7778C5 26.9514 5.05599 27.1192 5.16038 27.2778C5.64637 26.5394 7.18147 26 9 26C10.8185 26 12.3536 26.5394 12.8396 27.2778Z" fill="black"/>
<path d="M8 4H10V30C8.89543 30 8 29.1046 8 28V4Z" fill="black"/>
<defs>
<filter id="filter0_d_4_2" x="25.8182" y="3.80682" width="74.0312" height="21.9318" filterUnits="userSpaceOnUse" color-interpolation-filters="sRGB">
<feFlood flood-opacity="0" result="BackgroundImageFix"/>
<feColorMatrix in="SourceAlpha" type="matrix" values="0 0 0 0 0 0 0 0 0 0 0 0 0 0 0 0 0 0 127 0" result="hardAlpha"/>
<feOffset dx="0.5" dy="0.5"/>
<feGaussianBlur stdDeviation="1"/>
<feComposite in2="hardAlpha" operator="out"/>
<feColorMatrix type="matrix" values="0 0 0 0 0 0 0 0 0 0.76 0 0 0 0 1 0 0 0 1 0"/>
<feBlend mode="normal" in2="BackgroundImageFix" result="effect1_dropShadow_4_2"/>
<feBlend mode="normal" in="SourceGraphic" in2="effect1_dropShadow_4_2" result="shape"/>
</filter>
</defs>
</svg>
