<svg width="112" height="33" viewBox="0 0 112 33" fill="none" xmlns="http://www.w3.org/2000/svg">
<g filter="url(#filter0_d_70_331)">
<path d="M18.3182 27V9.54545H28.4432V10.9773H19.9119V17.5483H27.9062V18.9801H19.9119V25.5682H28.6136V27H18.3182ZM44.6449 15C44.4858 14.4205 44.2528 13.8778 43.946 13.3722C43.6392 12.8608 43.2585 12.4148 42.804 12.0341C42.3551 11.6477 41.8352 11.3466 41.2443 11.1307C40.6591 10.9148 40.0057 10.8068 39.2841 10.8068C38.1477 10.8068 37.1307 11.1023 36.233 11.6932C35.3352 12.2841 34.625 13.1364 34.1023 14.25C33.5852 15.3636 33.3267 16.7045 33.3267 18.2727C33.3267 19.8352 33.5881 21.1733 34.1108 22.2869C34.6335 23.4006 35.3494 24.2557 36.2585 24.8523C37.1733 25.4432 38.2188 25.7386 39.3949 25.7386C40.4688 25.7386 41.4176 25.5 42.2415 25.0227C43.0653 24.5455 43.7074 23.8636 44.1676 22.9773C44.6335 22.0909 44.8608 21.0369 44.8494 19.8153L45.3608 19.9773H39.7699V18.5455H46.4006V19.9773C46.4006 21.4659 46.0994 22.7528 45.4972 23.8381C44.8949 24.9233 44.0682 25.7614 43.017 26.3523C41.9659 26.9432 40.7585 27.2386 39.3949 27.2386C37.8722 27.2386 36.5398 26.8722 35.3977 26.1392C34.2557 25.4006 33.3665 24.3608 32.7301 23.0199C32.0994 21.6733 31.7841 20.0909 31.7841 18.2727C31.7841 16.9034 31.9659 15.6676 32.3295 14.5653C32.6932 13.4631 33.2074 12.5199 33.8722 11.7358C34.5426 10.9517 35.3352 10.3523 36.25 9.9375C37.1648 9.51705 38.1761 9.30682 39.2841 9.30682C40.2386 9.30682 41.1108 9.45739 41.9006 9.75852C42.696 10.0597 43.3949 10.4744 43.9972 11.0028C44.6051 11.5256 45.1023 12.1307 45.4886 12.8182C45.8807 13.5 46.1449 14.2273 46.2812 15H44.6449ZM58.701 9.54545V27H57.1072V9.54545H58.701ZM84.4013 18.2727C84.4013 20.0909 84.0774 21.6733 83.4297 23.0199C82.782 24.3608 81.8899 25.4006 80.7536 26.1392C79.6229 26.8722 78.3217 27.2386 76.8501 27.2386C75.3786 27.2386 74.0746 26.8722 72.9382 26.1392C71.8075 25.4006 70.9183 24.3608 70.2706 23.0199C69.6286 21.6733 69.3075 20.0909 69.3075 18.2727C69.3075 16.4545 69.6286 14.875 70.2706 13.5341C70.9183 12.1875 71.8104 11.1477 72.9467 10.4148C74.0831 9.67614 75.3842 9.30682 76.8501 9.30682C78.3217 9.30682 79.6229 9.67614 80.7536 10.4148C81.8899 11.1477 82.782 12.1875 83.4297 13.5341C84.0774 14.875 84.4013 16.4545 84.4013 18.2727ZM82.8501 18.2727C82.8501 16.7102 82.5888 15.3722 82.0661 14.2585C81.5433 13.1392 80.8303 12.2841 79.9268 11.6932C79.0234 11.1023 77.9979 10.8068 76.8501 10.8068C75.7081 10.8068 74.6854 11.1023 73.782 11.6932C72.8786 12.2841 72.1626 13.1364 71.6342 14.25C71.1115 15.3636 70.8501 16.7045 70.8501 18.2727C70.8501 19.8352 71.1115 21.1733 71.6342 22.2869C72.157 23.4006 72.87 24.2557 73.7734 24.8523C74.6768 25.4432 75.7024 25.7386 76.8501 25.7386C77.9979 25.7386 79.0234 25.4432 79.9268 24.8523C80.8359 24.2614 81.5518 23.4091 82.0746 22.2955C82.5973 21.1761 82.8558 19.8352 82.8501 18.2727ZM101.849 9.54545V27H100.298L89.9858 12.3835H89.8494V27H88.2557V9.54545H89.7983L100.145 24.179H100.281V9.54545H101.849Z" fill="#010101"/>
</g>
<path d="M7 5H9V31C7.89543 31 7 30.1046 7 29V5Z" fill="#2A599F"/>
<path d="M11 33C9.89543 33 9 32.1046 9 31L111 31C111 32.1046 110.105 33 109 33L11 33Z" fill="#2A599F"/>
<path fill-rule="evenodd" clip-rule="evenodd" d="M9 28V31H12C10.3431 31 9 29.6569 9 28Z" fill="#2A599F"/>
<path fill-rule="evenodd" clip-rule="evenodd" d="M10 27V30H13C11.3431 30 10 28.6569 10 27Z" fill="black"/>
<path fill-rule="evenodd" clip-rule="evenodd" d="M9 25.5351C7.8044 26.2267 7 27.5194 7 29C7 31.2091 8.79086 33 11 33C12.4806 33 13.7733 32.1956 14.4649 31H9V25.5351Z" fill="#2A599F"/>
<g filter="url(#filter1_d_70_331)">
<path d="M65 6V6C65.5523 6 66 6.44772 66 7V23V23C65.4477 23 65 22.5523 65 22V6Z" fill="black"/>
</g>
<path d="M12 32C10.8954 32 10 31.1046 10 30L112 30C112 31.1046 111.105 32 110 32L12 32Z" fill="black"/>
<path fill-rule="evenodd" clip-rule="evenodd" d="M10 25C8.8044 25.6485 8 26.8607 8 28.2491C8 30.3207 9.79086 32 12 32C13.4806 32 14.7733 31.2457 15.4649 30.1245H10V25Z" fill="black"/>
<path d="M8 1L9 5L8 9L7 5L8 1Z" fill="#2A599F"/>
<g filter="url(#filter2_d_70_331)">
<path d="M58 3L59 5.5L58 8L57 5.5L58 3Z" fill="black"/>
</g>
<g filter="url(#filter3_d_70_331)">
<path d="M50 7C50 6.44772 50.4477 6 51 6V6V22.5C51 22.7761 50.7761 23 50.5 23V23C50.2239 23 50 22.7761 50 22.5V7Z" fill="black"/>
</g>
<g filter="url(#filter4_d_70_331)">
<path fill-rule="evenodd" clip-rule="evenodd" d="M65.748 24C65.9125 23.6804 66 23.3453 66 23C66 20.7909 62.4183 19 58 19C53.5817 19 50 20.7909 50 23C50 23.3453 50.0875 23.6804 50.252 24C51.1401 22.2748 54.2723 21 58 21C61.7277 21 64.8599 22.2748 65.748 24Z" fill="black"/>
</g>
<g filter="url(#filter5_d_70_331)">
<path fill-rule="evenodd" clip-rule="evenodd" d="M61.8396 26.2778C61.944 26.1192 62 25.9514 62 25.7778C62 24.7959 60.2091 24 58 24C55.7909 24 54 24.7959 54 25.7778C54 25.9514 54.056 26.1192 54.1604 26.2778C54.6464 25.5394 56.1815 25 58 25C59.8185 25 61.3536 25.5394 61.8396 26.2778Z" fill="black"/>
</g>
<path d="M8 6C8 4.89543 8.89543 4 10 4V30C8.89543 30 8 29.1046 8 28V6Z" fill="black"/>
<defs>
<filter id="filter0_d_70_331" x="16.8182" y="7.80682" width="87.5312" height="21.9318" filterUnits="userSpaceOnUse" color-interpolation-filters="sRGB">
<feFlood flood-opacity="0" result="BackgroundImageFix"/>
<feColorMatrix in="SourceAlpha" type="matrix" values="0 0 0 0 0 0 0 0 0 0 0 0 0 0 0 0 0 0 127 0" result="hardAlpha"/>
<feOffset dx="0.5" dy="0.5"/>
<feGaussianBlur stdDeviation="1"/>
<feComposite in2="hardAlpha" operator="out"/>
<feColorMatrix type="matrix" values="0 0 0 0 0.166667 0 0 0 0 0.35 0 0 0 0 0.625 0 0 0 1 0"/>
<feBlend mode="normal" in2="BackgroundImageFix" result="effect1_dropShadow_70_331"/>
<feBlend mode="normal" in="SourceGraphic" in2="effect1_dropShadow_70_331" result="shape"/>
</filter>
<filter id="filter1_d_70_331" x="63.5" y="4.5" width="5" height="21" filterUnits="userSpaceOnUse" color-interpolation-filters="sRGB">
<feFlood flood-opacity="0" result="BackgroundImageFix"/>
<feColorMatrix in="SourceAlpha" type="matrix" values="0 0 0 0 0 0 0 0 0 0 0 0 0 0 0 0 0 0 127 0" result="hardAlpha"/>
<feOffset dx="0.5" dy="0.5"/>
<feGaussianBlur stdDeviation="1"/>
<feComposite in2="hardAlpha" operator="out"/>
<feColorMatrix type="matrix" values="0 0 0 0 0.166667 0 0 0 0 0.35 0 0 0 0 0.625 0 0 0 1 0"/>
<feBlend mode="normal" in2="BackgroundImageFix" result="effect1_dropShadow_70_331"/>
<feBlend mode="normal" in="SourceGraphic" in2="effect1_dropShadow_70_331" result="shape"/>
</filter>
<filter id="filter2_d_70_331" x="55.5" y="1.5" width="6" height="9" filterUnits="userSpaceOnUse" color-interpolation-filters="sRGB">
<feFlood flood-opacity="0" result="BackgroundImageFix"/>
<feColorMatrix in="SourceAlpha" type="matrix" values="0 0 0 0 0 0 0 0 0 0 0 0 0 0 0 0 0 0 127 0" result="hardAlpha"/>
<feOffset dx="0.5" dy="0.5"/>
<feGaussianBlur stdDeviation="1"/>
<feComposite in2="hardAlpha" operator="out"/>
<feColorMatrix type="matrix" values="0 0 0 0 0.166667 0 0 0 0 0.35 0 0 0 0 0.625 0 0 0 1 0"/>
<feBlend mode="normal" in2="BackgroundImageFix" result="effect1_dropShadow_70_331"/>
<feBlend mode="normal" in="SourceGraphic" in2="effect1_dropShadow_70_331" result="shape"/>
</filter>
<filter id="filter3_d_70_331" x="48.5" y="4.5" width="5" height="21" filterUnits="userSpaceOnUse" color-interpolation-filters="sRGB">
<feFlood flood-opacity="0" result="BackgroundImageFix"/>
<feColorMatrix in="SourceAlpha" type="matrix" values="0 0 0 0 0 0 0 0 0 0 0 0 0 0 0 0 0 0 127 0" result="hardAlpha"/>
<feOffset dx="0.5" dy="0.5"/>
<feGaussianBlur stdDeviation="1"/>
<feComposite in2="hardAlpha" operator="out"/>
<feColorMatrix type="matrix" values="0 0 0 0 0.166667 0 0 0 0 0.35 0 0 0 0 0.625 0 0 0 1 0"/>
<feBlend mode="normal" in2="BackgroundImageFix" result="effect1_dropShadow_70_331"/>
<feBlend mode="normal" in="SourceGraphic" in2="effect1_dropShadow_70_331" result="shape"/>
</filter>
<filter id="filter4_d_70_331" x="48.5" y="17.5" width="20" height="9" filterUnits="userSpaceOnUse" color-interpolation-filters="sRGB">
<feFlood flood-opacity="0" result="BackgroundImageFix"/>
<feColorMatrix in="SourceAlpha" type="matrix" values="0 0 0 0 0 0 0 0 0 0 0 0 0 0 0 0 0 0 127 0" result="hardAlpha"/>
<feOffset dx="0.5" dy="0.5"/>
<feGaussianBlur stdDeviation="1"/>
<feComposite in2="hardAlpha" operator="out"/>
<feColorMatrix type="matrix" values="0 0 0 0 0.166667 0 0 0 0 0.35 0 0 0 0 0.625 0 0 0 1 0"/>
<feBlend mode="normal" in2="BackgroundImageFix" result="effect1_dropShadow_70_331"/>
<feBlend mode="normal" in="SourceGraphic" in2="effect1_dropShadow_70_331" result="shape"/>
</filter>
<filter id="filter5_d_70_331" x="52.55" y="22.5" width="12" height="6.27777" filterUnits="userSpaceOnUse" color-interpolation-filters="sRGB">
<feFlood flood-opacity="0" result="BackgroundImageFix"/>
<feColorMatrix in="SourceAlpha" type="matrix" values="0 0 0 0 0 0 0 0 0 0 0 0 0 0 0 0 0 0 127 0" result="hardAlpha"/>
<feOffset dx="0.55" dy="0.5"/>
<feGaussianBlur stdDeviation="1"/>
<feComposite in2="hardAlpha" operator="out"/>
<feColorMatrix type="matrix" values="0 0 0 0 0.166667 0 0 0 0 0.35 0 0 0 0 0.625 0 0 0 1 0"/>
<feBlend mode="normal" in2="BackgroundImageFix" result="effect1_dropShadow_70_331"/>
<feBlend mode="normal" in="SourceGraphic" in2="effect1_dropShadow_70_331" result="shape"/>
</filter>
</defs>
</svg>
