<svg width="47" height="51" viewBox="0 0 47 51" fill="none" xmlns="http://www.w3.org/2000/svg">
<path d="M40.5564 7.7658C40.5564 7.7658 44.3608 6.15611 44.0437 10.0654C43.938 11.6751 42.987 17.309 42.2472 23.4028L39.711 41.4544C39.711 41.4544 39.4997 44.0989 37.5975 44.5588C35.6952 45.0187 32.842 42.9491 32.3136 42.4892C31.8909 42.1443 24.3879 36.9702 21.7459 34.4407C21.0062 33.7508 20.1607 32.3711 21.8516 30.7614L32.9477 19.2637C34.2158 17.8839 35.4839 14.6645 30.2 18.5738L15.4053 29.4967C15.4053 29.4967 13.7145 30.6464 10.5443 29.6117L3.67522 27.3121C3.67522 27.3121 1.13898 25.5874 5.47173 23.8627C16.0394 18.4587 29.0377 12.9398 40.5564 7.7658Z" fill="#7CDCFB"/>
</svg>
